<svg xmlns="http://www.w3.org/2000/svg" width="1600" height="900" viewBox="0 0 1600 900">
  <defs>
    <linearGradient id="battleSky" x1="0" y1="0" x2="0" y2="1"><stop offset="0%" stop-color="#727983"/><stop offset="60%" stop-color="#b49174"/><stop offset="100%" stop-color="#3f2c21"/></linearGradient>
    <linearGradient id="battleGround" x1="0" y1="0" x2="0" y2="1"><stop offset="0%" stop-color="#8a6248"/><stop offset="100%" stop-color="#241712"/></linearGradient>
    <radialGradient id="blast" cx="50%" cy="50%" r="50%"><stop offset="0%" stop-color="#fff1c8"/><stop offset="40%" stop-color="#ffc268"/><stop offset="100%" stop-color="#ff6b22" stop-opacity="0"/></radialGradient>
    <style>
      .title { font: 800 34px 'Segoe UI', Arial, sans-serif; fill: #f3ead8; }
      .sub { font: 600 16px 'Segoe UI', Arial, sans-serif; fill: #e0c9ab; }
      .label { font: 700 16px 'Segoe UI', Arial, sans-serif; fill: #f0dcb1; }
      .note { font: 500 13px 'Segoe UI', Arial, sans-serif; fill: #d7c7b5; }
      .m1 { fill: #171d25; } .m2 { fill: #2e3946; } .m3 { fill: #718397; } .m4 { fill: #495767; }
      .gold { fill: #efc474; } .blue { fill: #89d7f4; } .red { fill: #d56f58; } .smoke { fill: #2a201c; opacity: .78; }
    </style>
  </defs>
  <rect width="1600" height="900" fill="#161920"/>
  <rect x="18" y="18" width="1564" height="864" rx="24" fill="#111318" stroke="#7f6348" stroke-width="3"/>
  <text x="48" y="72" class="title">MARKSMAN / VOX SCOUT</text>
  <text x="48" y="102" class="sub">??? ?? ??</text>
  <g transform="translate(36,136)"><rect width="1528" height="708" rx="20" fill="#181b22"/><rect x="78" y="112" width="240" height="420" rx="22" fill="#10141a" stroke="#67513b" stroke-width="2"/><g transform="translate(96,138)"><circle cx="58" cy="42" r="16" class="m3"/><path d="M38 62 L82 62 L96 132 L24 132 Z" class="m2"/><rect x="98" y="82" width="82" height="8" rx="4" class="blue"/><rect x="110" y="96" width="68" height="8" rx="4" class="gold"/><rect x="42" y="132" width="14" height="96" rx="8" class="m3"/><rect x="64" y="132" width="14" height="96" rx="8" class="m3"/></g><text x="96" y="580" class="label">Marksman / Vox Scout</text><text x="96" y="610" class="note">??? ??? ?? ??? ??.</text><rect x="382" y="112" width="1050" height="420" rx="22" fill="#10141a" stroke="#67513b" stroke-width="2"/><text x="410" y="160" class="label">Silhouette Rules</text><text x="410" y="204" class="note">- helmet silhouette</text><text x="410" y="232" class="note">- shoulder mass and chest plate width</text><text x="410" y="260" class="note">- gun length or shield plane</text><text x="410" y="288" class="note">- backpack or power unit read</text></g>
</svg>